<svg xmlns="http://www.w3.org/2000/svg" width="28" height="27" viewBox="0 0 28 27" fill="none">
  <path d="M8.30511 23.5055H8.80511V23.0055V10.1205V9.6205H8.30511H4.14867H3.64867V10.1205V23.0055V23.5055H4.14867H8.30511ZM23.8591 23.5055H24.3592L24.3591 23.0054L24.3576 15.9405C24.3576 15.9405 24.3576 15.9404 24.3576 15.9404C24.3575 14.1927 24.1678 12.5281 23.3621 11.2962C22.5241 10.0149 21.0937 9.3025 18.8751 9.3025C17.3795 9.3025 16.1966 9.84189 15.3913 10.5552V10.122V9.622H14.8913H10.9091H10.4091V10.122V23.007V23.507H10.9091H15.0578H15.5578V23.007V16.635C15.5578 15.8041 15.6438 15.0923 15.9264 14.597C16.0611 14.361 16.2396 14.1762 16.4826 14.0463C16.7292 13.9144 17.07 13.8245 17.5482 13.8245C18.0047 13.8245 18.303 13.9266 18.5055 14.0629C18.7077 14.199 18.8559 14.3972 18.9643 14.6616C19.1935 15.2209 19.2073 15.9702 19.2073 16.74V23.0055V23.5055H19.7073H23.8591ZM1.55556 0.5H26.4444C26.7301 0.5 27.0006 0.609611 27.1973 0.799262C27.3934 0.988316 27.5 1.24077 27.5 1.5V25.5C27.5 25.7592 27.3934 26.0117 27.1973 26.2007C27.0006 26.3904 26.7301 26.5 26.4444 26.5H1.55556C1.26985 26.5 0.999354 26.3904 0.80268 26.2007C0.606623 26.0117 0.5 25.7592 0.5 25.5V1.5C0.5 1.24077 0.606623 0.988317 0.802679 0.799262C0.999355 0.609611 1.26986 0.5 1.55556 0.5ZM4.17711 8.04082C4.72374 8.56794 5.46139 8.861 6.22689 8.861C6.99239 8.861 7.73003 8.56794 8.27667 8.04082C8.82392 7.51312 9.13489 6.79343 9.13489 6.039C9.13489 5.28457 8.82392 4.56489 8.27667 4.03718C7.73003 3.51006 6.99239 3.217 6.22689 3.217C5.46139 3.217 4.72374 3.51006 4.17711 4.03718C3.62985 4.56489 3.31889 5.28457 3.31889 6.039C3.31889 6.79343 3.62985 7.51311 4.17711 8.04082Z" fill="#868686" stroke="#868686"/>
</svg>