<svg width="34" height="184" viewBox="0 0 34 184" fill="none" xmlns="http://www.w3.org/2000/svg">
<circle cx="17" cy="17" r="17" fill="#D9D9D9"/>
<path d="M6.00586 25.5269V8.50897H27.5285V25.5269H6.00586ZM16.7672 18.0816L8.15813 12.7635V23.3997H25.3763V12.7635L16.7672 18.0816ZM16.7672 15.9543L25.3763 10.6362H8.15813L16.7672 15.9543ZM8.15813 12.7635V10.6362V23.3997V12.7635Z" fill="#004E8F"/>
<circle cx="17" cy="92" r="17" fill="#D9D9D9"/>
<g clip-path="url(#clip0_763_45)">
<path d="M11.2391 101.285V87.9605H6.61556V101.285H11.2391ZM8.92793 86.1402C10.5402 86.1402 11.5438 85.1171 11.5438 83.8385C11.5138 82.5311 10.5403 81.5363 8.95852 81.5363C7.377 81.5363 6.34277 82.5311 6.34277 83.8385C6.34277 85.1171 7.34611 86.1402 8.89774 86.1402H8.92778H8.92793ZM13.7982 101.285H18.4217V93.8437C18.4217 93.4455 18.4518 93.0477 18.5739 92.763C18.9081 91.9674 19.6689 91.1434 20.9461 91.1434C22.6192 91.1434 23.2885 92.3652 23.2885 94.1564V101.284H27.9117V93.6446C27.9117 89.5519 25.6307 87.6477 22.5887 87.6477C20.0945 87.6477 18.9994 88.9831 18.391 89.8926H18.4219V87.9602H13.7983C13.859 89.2105 13.7983 101.284 13.7983 101.284L13.7982 101.285Z" fill="#004E8F"/>
</g>
<circle cx="17" cy="167" r="17" fill="#D9D9D9"/>
<g clip-path="url(#clip1_763_45)">
<path d="M17.1311 161.746C14.0695 161.746 11.6001 164.121 11.6001 167.065C11.6001 170.008 14.0695 172.383 17.1311 172.383C20.1926 172.383 22.6621 170.008 22.6621 167.065C22.6621 164.121 20.1926 161.746 17.1311 161.746ZM17.1311 170.522C15.1526 170.522 13.5352 168.971 13.5352 167.065C13.5352 165.158 15.1478 163.607 17.1311 163.607C19.1143 163.607 20.7269 165.158 20.7269 167.065C20.7269 168.971 19.1095 170.522 17.1311 170.522ZM24.1784 161.529C24.1784 162.219 23.6008 162.769 22.8883 162.769C22.1711 162.769 21.5982 162.214 21.5982 161.529C21.5982 160.844 22.1759 160.288 22.8883 160.288C23.6008 160.288 24.1784 160.844 24.1784 161.529ZM27.8417 162.788C27.7598 161.126 27.3651 159.654 26.0991 158.442C24.8379 157.229 23.3071 156.849 21.579 156.766C19.7979 156.669 14.4594 156.669 12.6784 156.766C10.955 156.845 9.42426 157.224 8.15824 158.437C6.89222 159.65 6.50231 161.122 6.41566 162.783C6.31457 164.496 6.31457 169.629 6.41566 171.341C6.49749 173.003 6.89222 174.475 8.15824 175.687C9.42426 176.9 10.9502 177.28 12.6784 177.363C14.4594 177.46 19.7979 177.46 21.579 177.363C23.3071 177.284 24.8379 176.905 26.0991 175.687C27.3603 174.475 27.755 173.003 27.8417 171.341C27.9428 169.629 27.9428 164.5 27.8417 162.788ZM25.5407 173.179C25.1652 174.086 24.4384 174.785 23.49 175.151C22.07 175.692 18.7004 175.567 17.1311 175.567C15.5618 175.567 12.1874 175.687 10.7721 175.151C9.82861 174.789 9.10173 174.091 8.72145 173.179C8.15824 171.813 8.28821 168.573 8.28821 167.065C8.28821 165.556 8.16305 162.311 8.72145 160.95C9.09692 160.043 9.8238 159.344 10.7721 158.979C12.1922 158.437 15.5618 158.562 17.1311 158.562C18.7004 158.562 22.0748 158.442 23.49 158.979C24.4335 159.34 25.1604 160.038 25.5407 160.95C26.1039 162.316 25.9739 165.556 25.9739 167.065C25.9739 168.573 26.1039 171.818 25.5407 173.179Z" fill="#004E8F"/>
</g>
<defs>
<clipPath id="clip0_763_45">
<rect width="21.5656" height="19.7483" fill="white" transform="translate(6.34277 81.5367)"/>
</clipPath>
<clipPath id="clip1_763_45">
<rect width="21.5656" height="23.6979" fill="white" transform="translate(6.34375 155.22)"/>
</clipPath>
</defs>
</svg>
