<svg xmlns="http://www.w3.org/2000/svg" width="26" height="29" viewBox="0 0 26 29" fill="none">
  <g clip-path="url(#clip0_769_254)">
    <path d="M13.1536 7.81928C9.55175 7.81928 6.64651 10.6127 6.64651 14.0759C6.64651 17.5391 9.55175 20.3326 13.1536 20.3326C16.7554 20.3326 19.6606 17.5391 19.6606 14.0759C19.6606 10.6127 16.7554 7.81928 13.1536 7.81928ZM13.1536 18.1436C10.826 18.1436 8.92313 16.3194 8.92313 14.0759C8.92313 11.8325 10.8203 10.0083 13.1536 10.0083C15.4868 10.0083 17.384 11.8325 17.384 14.0759C17.384 16.3194 15.4812 18.1436 13.1536 18.1436ZM21.4446 7.56336C21.4446 8.3747 20.765 9.02269 19.9268 9.02269C19.083 9.02269 18.4091 8.36926 18.4091 7.56336C18.4091 6.75745 19.0887 6.10402 19.9268 6.10402C20.765 6.10402 21.4446 6.75745 21.4446 7.56336ZM25.7543 9.04447C25.658 7.08962 25.1936 5.35801 23.7042 3.93135C22.2204 2.50468 20.4195 2.05817 18.3864 1.96015C16.291 1.8458 10.0105 1.8458 7.91508 1.96015C5.88764 2.05272 4.08673 2.49924 2.5973 3.9259C1.10786 5.35257 0.649142 7.08417 0.547204 9.03903C0.428276 11.0538 0.428276 17.0926 0.547204 19.1074C0.643479 21.0622 1.10786 22.7938 2.5973 24.2205C4.08673 25.6472 5.88198 26.0937 7.91508 26.1917C10.0105 26.306 16.291 26.306 18.3864 26.1917C20.4195 26.0991 22.2204 25.6526 23.7042 24.2205C25.188 22.7938 25.6523 21.0622 25.7543 19.1074C25.8732 17.0926 25.8732 11.0592 25.7543 9.04447ZM23.0473 21.2691C22.6055 22.3364 21.7504 23.1587 20.6347 23.5888C18.9641 24.2259 14.9998 24.0789 13.1536 24.0789C11.3074 24.0789 7.33743 24.2205 5.67243 23.5888C4.56244 23.1641 3.70729 22.3419 3.2599 21.2691C2.5973 19.6628 2.7502 15.8511 2.7502 14.0759C2.7502 12.3008 2.60296 8.48361 3.2599 6.88269C3.70163 5.81542 4.55678 4.99318 5.67243 4.563C7.34309 3.9259 11.3074 4.07292 13.1536 4.07292C14.9998 4.07292 18.9697 3.93135 20.6347 4.563C21.7447 4.98773 22.5999 5.80997 23.0473 6.88269C23.7099 8.48905 23.5569 12.3008 23.5569 14.0759C23.5569 15.8511 23.7099 19.6682 23.0473 21.2691Z" fill="#004E8F"/>
  </g>
  <defs>
    <clipPath id="clip0_769_254">
      <rect width="25.3713" height="27.8799" fill="white" transform="translate(0.462891 0.141479)"/>
    </clipPath>
  </defs>
</svg>