<svg xmlns="http://www.w3.org/2000/svg" width="26" height="24" viewBox="0 0 26 24" fill="none">
  <g clip-path="url(#clip0_769_248)">
    <path d="M6.2223 23.9232V8.24776H0.782839L0.782839 23.9232H6.2223ZM3.50327 6.10626C5.40011 6.10626 6.58079 4.90257 6.58079 3.39836C6.54545 1.86022 5.40018 0.689941 3.53927 0.689941C1.67865 0.689941 0.461914 1.86025 0.461914 3.39836C0.461914 4.90264 1.64231 6.10626 3.46776 6.10626H3.5031H3.50327ZM9.23302 23.9232H14.6725V15.1693C14.6725 14.7008 14.7078 14.2328 14.8515 13.8979C15.2447 12.9618 16.1397 11.9923 17.6423 11.9923C19.6106 11.9923 20.398 13.4298 20.398 15.5371V23.9231H25.8372V14.9349C25.8372 10.1201 23.1536 7.87975 19.5748 7.87975C16.6404 7.87975 15.352 9.45083 14.6363 10.5209H14.6726V8.24744H9.23314C9.30452 9.71834 9.23314 23.9229 9.23314 23.9229L9.23302 23.9232Z" fill="#004E8F"/>
  </g>
  <defs>
    <clipPath id="clip0_769_248">
      <rect width="25.3713" height="23.2332" fill="white" transform="translate(0.461914 0.690308)"/>
    </clipPath>
  </defs>
</svg>