<svg xmlns="http://www.w3.org/2000/svg" width="15" height="16" viewBox="0 0 20 21" fill="none">
  <path d="M0.893804 3.96018L3.37101 1.37766C3.54576 1.19451 3.75346 1.0492 3.98218 0.950062C4.21091 0.850927 4.45615 0.799926 4.70382 0.799988C5.20856 0.799988 5.68307 1.0063 6.03895 1.37766L8.70457 4.15921C8.88008 4.34156 9.01934 4.55829 9.11434 4.79696C9.20934 5.03564 9.25822 5.29155 9.25816 5.54999C9.25816 6.07669 9.06045 6.57183 8.70457 6.94319L6.75537 8.97717C7.21163 10.0266 7.84598 10.9813 8.62781 11.7951C9.40767 12.6129 10.3225 13.2773 11.3283 13.7563L13.2775 11.7223C13.4523 11.5392 13.66 11.3939 13.8887 11.2947C14.1174 11.1956 14.3627 11.1446 14.6103 11.1446C15.1151 11.1446 15.5896 11.351 15.9455 11.7223L18.6134 14.5014C18.7891 14.6841 18.9285 14.9013 19.0235 15.1404C19.1185 15.3795 19.1673 15.6358 19.167 15.8946C19.167 16.4213 18.9693 16.9165 18.6134 17.2879L16.1408 19.8679C15.5733 20.4626 14.7894 20.8 13.9846 20.8C13.8148 20.8 13.652 20.7854 13.4915 20.7563C10.356 20.2175 7.24615 18.4772 4.73638 15.8607C2.22894 13.2466 0.56351 10.0039 0.0401546 6.72232C-0.118014 5.71989 0.20065 4.68834 0.893804 3.96018Z" fill="white"/>
</svg>