<svg xmlns="http://www.w3.org/2000/svg" width="15" height="16" viewBox="0 0 20 16" fill="none">
  <path d="M2.21046 0.799988L17.7895 0.799988C19.2593 0.799988 20 1.50799 20 2.94799V13.052C20 14.48 19.2593 15.2 17.7895 15.2H2.21046C0.740741 15.2 0 14.48 0 13.052L0 2.94799C0 1.50799 0.740741 0.799988 2.21046 0.799988ZM9.99412 11.12L17.9189 4.48399C18.2011 4.24399 18.4245 3.69199 18.0717 3.19999C17.7307 2.70799 17.1076 2.69599 16.6961 2.99599L9.99412 7.62799L3.30394 2.99599C2.89242 2.69599 2.26925 2.70799 1.92828 3.19999C1.57554 3.69199 1.79894 4.24399 2.08113 4.48399L9.99412 11.12Z" fill="white"/>
</svg>