<svg xmlns="http://www.w3.org/2000/svg" width="12" height="21" viewBox="0 0 14 21" fill="none">
  <g clip-path="url(#clip0_763_64)">
    <path d="M6.13594 19.7C4.23281 17.1922 0 11.1141 0 7.70001C0 3.55783 3.13396 0.200012 7 0.200012C10.8646 0.200012 14 3.55783 14 7.70001C14 11.1141 9.73438 17.1922 7.86406 19.7C7.41563 20.2977 6.58437 20.2977 6.13594 19.7ZM7 10.2C8.28698 10.2 9.33333 9.07892 9.33333 7.70001C9.33333 6.32111 8.28698 5.20001 7 5.20001C5.71302 5.20001 4.66667 6.32111 4.66667 7.70001C4.66667 9.07892 5.71302 10.2 7 10.2Z" fill="white"/>
  </g>
  <defs>
    <clipPath id="clip0_763_64">
      <rect width="14" height="20" fill="white" transform="translate(0 0.200012)"/>
    </clipPath>
  </defs>
</svg>