<svg width="113" height="37" viewBox="0 0 113 37" fill="none" xmlns="http://www.w3.org/2000/svg">
<g id="Group 114">
<path id="Vector" d="M8.30511 27.5055H8.80511V27.0055V14.1205V13.6205H8.30511H4.14867H3.64867V14.1205V27.0055V27.5055H4.14867H8.30511ZM23.8591 27.5055H24.3592L24.3591 27.0054L24.3576 19.9405C24.3576 19.9405 24.3576 19.9404 24.3576 19.9404C24.3575 18.1927 24.1678 16.5281 23.3621 15.2962C22.5241 14.0149 21.0937 13.3025 18.8751 13.3025C17.3795 13.3025 16.1966 13.8419 15.3913 14.5552V14.122V13.622H14.8913H10.9091H10.4091V14.122V27.007V27.507H10.9091H15.0578H15.5578V27.007V20.635C15.5578 19.8041 15.6438 19.0923 15.9264 18.597C16.0611 18.361 16.2396 18.1762 16.4826 18.0463C16.7292 17.9144 17.07 17.8245 17.5482 17.8245C18.0047 17.8245 18.303 17.9266 18.5055 18.0629C18.7077 18.199 18.8559 18.3972 18.9643 18.6616C19.1935 19.2209 19.2073 19.9702 19.2073 20.74V27.0055V27.5055H19.7073H23.8591ZM1.55556 4.5H26.4444C26.7301 4.5 27.0006 4.60961 27.1973 4.79926C27.3934 4.98832 27.5 5.24077 27.5 5.5V29.5C27.5 29.7592 27.3934 30.0117 27.1973 30.2007C27.0006 30.3904 26.7301 30.5 26.4444 30.5H1.55556C1.26985 30.5 0.999354 30.3904 0.80268 30.2007C0.606623 30.0117 0.5 29.7592 0.5 29.5V5.5C0.5 5.24077 0.606623 4.98832 0.802679 4.79926C0.999355 4.60961 1.26986 4.5 1.55556 4.5ZM4.17711 12.0408C4.72374 12.5679 5.46139 12.861 6.22689 12.861C6.99239 12.861 7.73003 12.5679 8.27667 12.0408C8.82392 11.5131 9.13489 10.7934 9.13489 10.039C9.13489 9.28457 8.82392 8.56489 8.27667 8.03718C7.73003 7.51006 6.99239 7.217 6.22689 7.217C5.46139 7.217 4.72374 7.51006 4.17711 8.03718C3.62985 8.56489 3.31889 9.28457 3.31889 10.039C3.31889 10.7934 3.62985 11.5131 4.17711 12.0408Z" fill="#868686" stroke="#868686"/>
<g id="Group 113">
<g id="Group">
<path id="Vector_2" d="M83.0664 25.3407V11.8788L96.6619 20.9429L96.6766 20.9527L96.692 20.9615L96.8685 21.0619L96.8821 21.0697L96.8963 21.0766C97.1726 21.2116 97.4762 21.2818 97.7838 21.2818C98.0914 21.2818 98.395 21.2116 98.6713 21.0766L98.6855 21.0697L98.6991 21.0619L98.8756 20.9615L98.891 20.9527L98.9057 20.9429L112.501 11.8788V25.3478C112.501 26.3847 112.105 27.3825 111.394 28.1369C110.684 28.8896 109.714 29.3433 108.682 29.4058L108.429 29.413H87.1316C86.0947 29.4131 85.0969 29.0169 84.3425 28.3055C83.5899 27.5958 83.1361 26.626 83.0736 25.5936L83.0664 25.3407Z" fill="#868686" stroke="#868686"/>
<path id="Vector_3" d="M108.437 6.06519C109.727 6.06519 110.877 6.66524 111.622 7.60413L97.7844 16.8293L83.9466 7.60411C84.2475 7.22485 84.6146 6.90134 85.0314 6.64994C85.5841 6.31656 86.2081 6.11958 86.8519 6.07525L87.1409 6.06519H108.437Z" fill="#868686" stroke="#868686"/>
</g>
</g>
<path id="Vector 1" d="M55 1V36" stroke="#868686" stroke-linecap="round"/>
</g>
</svg>
