<svg width="34" height="34" viewBox="0 0 34 34" fill="none" xmlns="http://www.w3.org/2000/svg">
<circle cx="17" cy="17" r="17" fill="#D9D9D9"/>
<g clip-path="url(#clip0_763_10)">
<path d="M17.1311 11.7464C14.0695 11.7464 11.6001 14.1208 11.6001 17.0645C11.6001 20.0083 14.0695 22.3827 17.1311 22.3827C20.1926 22.3827 22.6621 20.0083 22.6621 17.0645C22.6621 14.1208 20.1926 11.7464 17.1311 11.7464ZM17.1311 20.522C15.1526 20.522 13.5352 18.9715 13.5352 17.0645C13.5352 15.1576 15.1478 13.6071 17.1311 13.6071C19.1143 13.6071 20.7269 15.1576 20.7269 17.0645C20.7269 18.9715 19.1095 20.522 17.1311 20.522ZM24.1784 11.5289C24.1784 12.2185 23.6008 12.7693 22.8883 12.7693C22.1711 12.7693 21.5982 12.2139 21.5982 11.5289C21.5982 10.8438 22.1759 10.2884 22.8883 10.2884C23.6008 10.2884 24.1784 10.8438 24.1784 11.5289ZM27.8417 12.7878C27.7598 11.1262 27.3651 9.65432 26.0991 8.44165C24.8379 7.22899 23.3071 6.84945 21.579 6.76614C19.7979 6.66894 14.4594 6.66894 12.6784 6.76614C10.955 6.84482 9.42426 7.22436 8.15824 8.43702C6.89222 9.64969 6.50231 11.1216 6.41566 12.7832C6.31457 14.4957 6.31457 19.6287 6.41566 21.3413C6.49749 23.0029 6.89222 24.4748 8.15824 25.6874C9.42426 26.9001 10.9502 27.2796 12.6784 27.3629C14.4594 27.4601 19.7979 27.4601 21.579 27.3629C23.3071 27.2843 24.8379 26.9047 26.0991 25.6874C27.3603 24.4748 27.755 23.0029 27.8417 21.3413C27.9428 19.6287 27.9428 14.5004 27.8417 12.7878ZM25.5407 23.1788C25.1652 24.086 24.4384 24.7849 23.49 25.1505C22.07 25.6921 18.7004 25.5671 17.1311 25.5671C15.5618 25.5671 12.1874 25.6874 10.7721 25.1505C9.82861 24.7895 9.10173 24.0906 8.72145 23.1788C8.15824 21.8134 8.28821 18.5734 8.28821 17.0645C8.28821 15.5556 8.16305 12.3111 8.72145 10.9503C9.09692 10.0431 9.8238 9.34421 10.7721 8.97856C12.1922 8.43702 15.5618 8.56199 17.1311 8.56199C18.7004 8.56199 22.0748 8.44165 23.49 8.97856C24.4335 9.33958 25.1604 10.0385 25.5407 10.9503C26.1039 12.3157 25.9739 15.5556 25.9739 17.0645C25.9739 18.5734 26.1039 21.818 25.5407 23.1788Z" fill="#004E8F"/>
</g>
<defs>
<clipPath id="clip0_763_10">
<rect width="21.5656" height="23.6979" fill="white" transform="translate(6.34375 5.22028)"/>
</clipPath>
</defs>
</svg>
