<svg width="34" height="34" viewBox="0 0 34 34" fill="none" xmlns="http://www.w3.org/2000/svg">
<circle cx="17" cy="17" r="17" fill="#D9D9D9"/>
<g clip-path="url(#clip0_763_9)">
<path d="M11.2391 26.2846V12.9605H6.61556V26.2846H11.2391ZM8.92793 11.1402C10.5402 11.1402 11.5438 10.1171 11.5438 8.83847C11.5138 7.53106 10.5403 6.53632 8.95852 6.53632C7.377 6.53632 6.34277 7.53108 6.34277 8.83847C6.34277 10.1171 7.34611 11.1402 8.89774 11.1402H8.92778H8.92793ZM13.7982 26.2846H18.4217V18.8437C18.4217 18.4455 18.4518 18.0477 18.5739 17.763C18.9081 16.9674 19.6689 16.1434 20.9461 16.1434C22.6192 16.1434 23.2885 17.3652 23.2885 19.1564V26.2845H27.9117V18.6446C27.9117 14.5519 25.6307 12.6477 22.5887 12.6477C20.0945 12.6477 18.9994 13.9831 18.391 14.8926H18.4219V12.9602H13.7983C13.859 14.2105 13.7983 26.2843 13.7983 26.2843L13.7982 26.2846Z" fill="#004E8F"/>
</g>
<defs>
<clipPath id="clip0_763_9">
<rect width="21.5656" height="19.7483" fill="white" transform="translate(6.34277 6.53668)"/>
</clipPath>
</defs>
</svg>
