<svg xmlns="http://www.w3.org/2000/svg" width="22" height="24" viewBox="0 0 22 24" fill="none">
  <g clip-path="url(#clip0_758_447)">
    <path d="M11.1311 6.7464C8.06953 6.7464 5.60007 9.12082 5.60007 12.0645C5.60007 15.0083 8.06953 17.3827 11.1311 17.3827C14.1926 17.3827 16.6621 15.0083 16.6621 12.0645C16.6621 9.12082 14.1926 6.7464 11.1311 6.7464ZM11.1311 15.522C9.15262 15.522 7.5352 13.9715 7.5352 12.0645C7.5352 10.1576 9.14781 8.60705 11.1311 8.60705C13.1143 8.60705 14.7269 10.1576 14.7269 12.0645C14.7269 13.9715 13.1095 15.522 11.1311 15.522ZM18.1784 6.52886C18.1784 7.2185 17.6008 7.7693 16.8883 7.7693C16.1711 7.7693 15.5982 7.21388 15.5982 6.52886C15.5982 5.84384 16.1759 5.28842 16.8883 5.28842C17.6008 5.28842 18.1784 5.84384 18.1784 6.52886ZM21.8417 7.78781C21.7598 6.12618 21.3651 4.65432 20.0991 3.44165C18.8379 2.22899 17.3071 1.84945 15.579 1.76614C13.7979 1.66894 8.45944 1.66894 6.67835 1.76614C4.95503 1.84482 3.42426 2.22436 2.15824 3.43702C0.892222 4.64969 0.502308 6.12155 0.41566 7.78318C0.314572 9.49572 0.314572 14.6287 0.41566 16.3413C0.497494 18.0029 0.892222 19.4748 2.15824 20.6874C3.42426 21.9001 4.95022 22.2796 6.67835 22.3629C8.45944 22.4601 13.7979 22.4601 15.579 22.3629C17.3071 22.2843 18.8379 21.9047 20.0991 20.6874C21.3603 19.4748 21.755 18.0029 21.8417 16.3413C21.9428 14.6287 21.9428 9.50035 21.8417 7.78781ZM19.5407 18.1788C19.1652 19.086 18.4384 19.7849 17.49 20.1505C16.07 20.6921 12.7004 20.5671 11.1311 20.5671C9.56179 20.5671 6.18735 20.6874 4.77211 20.1505C3.82861 19.7895 3.10173 19.0906 2.72145 18.1788C2.15824 16.8134 2.28821 13.5734 2.28821 12.0645C2.28821 10.5556 2.16305 7.31107 2.72145 5.9503C3.09692 5.04311 3.8238 4.34421 4.77211 3.97856C6.19216 3.43702 9.56179 3.56199 11.1311 3.56199C12.7004 3.56199 16.0748 3.44165 17.49 3.97856C18.4335 4.33958 19.1604 5.03848 19.5407 5.9503C20.1039 7.3157 19.9739 10.5556 19.9739 12.0645C19.9739 13.5734 20.1039 16.818 19.5407 18.1788Z" fill="#004E8F"/>
  </g>
  <defs>
    <clipPath id="clip0_758_447">
      <rect width="21.5656" height="23.6979" fill="white" transform="translate(0.34375 0.220276)"/>
    </clipPath>
  </defs>
</svg>