<svg xmlns="http://www.w3.org/2000/svg" width="22" height="21" viewBox="0 0 22 21" fill="none">
  <g clip-path="url(#clip0_758_451)">
    <path d="M5.2391 20.2846V6.96047H0.61556L0.61556 20.2846H5.2391ZM2.92793 5.14019C4.54024 5.14019 5.54382 4.11705 5.54382 2.83847C5.51378 1.53106 4.5403 0.536316 2.95852 0.536316C1.377 0.536316 0.342773 1.53108 0.342773 2.83847C0.342773 4.11711 1.34611 5.14019 2.89774 5.14019H2.92778H2.92793ZM7.79821 20.2846H12.4217V12.8437C12.4217 12.4455 12.4518 12.0477 12.5739 11.763C12.9081 10.9674 13.6689 10.1434 14.9461 10.1434C16.6192 10.1434 17.2885 11.3652 17.2885 13.1564V20.2845H21.9117V12.6446C21.9117 8.55192 19.6307 6.64765 16.5887 6.64765C14.0945 6.64765 12.9994 7.98307 12.391 8.89262H12.4219V6.96019H7.79832C7.85899 8.21045 7.79832 20.2843 7.79832 20.2843L7.79821 20.2846Z" fill="#004E8F"/>
  </g>
  <defs>
    <clipPath id="clip0_758_451">
      <rect width="21.5656" height="19.7483" fill="white" transform="translate(0.342773 0.536682)"/>
    </clipPath>
  </defs>
</svg>