<svg xmlns="http://www.w3.org/2000/svg" width="31" height="25" viewBox="0 0 31 25" fill="none">
  <path d="M1.06641 20.3407V6.8788L14.6619 15.9429L14.6766 15.9527L14.692 15.9615L14.8685 16.0619L14.8821 16.0697L14.8963 16.0766C15.1726 16.2116 15.4762 16.2818 15.7838 16.2818C16.0914 16.2818 16.395 16.2116 16.6713 16.0766L16.6855 16.0697L16.6991 16.0619L16.8756 15.9615L16.891 15.9527L16.9057 15.9429L30.5012 6.87881V20.3478C30.5012 21.3847 30.1051 22.3825 29.3937 23.1369C28.684 23.8896 27.7142 24.3433 26.6818 24.4058L26.4289 24.413H5.13162C4.09468 24.4131 3.09693 24.0169 2.3425 23.3055C1.58986 22.5958 1.13614 21.626 1.07359 20.5936L1.06641 20.3407Z" fill="#868686" stroke="#868686"/>
  <path d="M26.4365 1.06519C27.7269 1.06519 28.8772 1.66524 29.6221 2.60413L15.7844 11.8293L1.94663 2.60411C2.24755 2.22485 2.61464 1.90134 3.03141 1.64994C3.58406 1.31656 4.20812 1.11958 4.85195 1.07525L5.14089 1.06519H26.4365Z" fill="#868686" stroke="#868686"/>
</svg>